<svg width="512" height="512" viewBox="0 0 512 512" fill="none" xmlns="http://www.w3.org/2000/svg">
<g clip-path="url(#clip0_7965_8937)">
<g clip-path="url(#clip1_7965_8937)">
<mask id="mask0_7965_8937" style="mask-type:luminance" maskUnits="userSpaceOnUse" x="0" y="0" width="512" height="512">
<path d="M0 0.00149536H511.999V512H0V0.00149536Z" fill="white"/>
</mask>
<g mask="url(#mask0_7965_8937)">
<path d="M420.094 24.0237C379.173 58.9156 338.703 87.7825 296.469 106.5C248.443 127.785 198.146 134.545 149 133.834V346.862C198.146 346.15 248.443 352.863 296.469 374.148C338.286 392.681 378.374 421.196 418.883 455.609" stroke="white" stroke-width="34" stroke-miterlimit="22.926" stroke-linecap="round" stroke-linejoin="round"/>
<path d="M436.999 465C470.045 465 496.999 363.926 496.999 240.001C496.999 116.075 470.045 15.0014 436.999 15.0014C403.952 15.0014 376.999 116.075 376.999 240.001C376.999 363.926 403.952 465 436.999 465Z" stroke="white" stroke-width="34" stroke-miterlimit="22.926" stroke-linecap="round" stroke-linejoin="round"/>
<path d="M380.616 171.795C413.566 176.899 438.999 205.57 438.999 239.893C438.999 272.98 415.366 300.814 384.146 307.349" stroke="white" stroke-width="34" stroke-miterlimit="22.926" stroke-linecap="round" stroke-linejoin="round"/>
<path d="M149 134.075H80.9998C44.6479 134.075 15 163.723 15 200.075V281.074C15 317.426 44.6479 347.074 80.9998 347.074H149V134.075Z" stroke="white" stroke-width="34" stroke-miterlimit="22.926" stroke-linecap="round" stroke-linejoin="round"/>
<path d="M211.999 356L171.723 473.696C166.874 487.797 154.36 497 139.449 497H137.999C119.272 497 104 481.727 104 463V347.074" stroke="white" stroke-width="34" stroke-miterlimit="22.926" stroke-linecap="round" stroke-linejoin="round"/>
</g>
</g>
</g>
<defs>
<clipPath id="clip0_7965_8937">
<rect width="512" height="512" fill="white"/>
</clipPath>
<clipPath id="clip1_7965_8937">
<rect width="512" height="512" fill="white"/>
</clipPath>
</defs>
</svg>
