<svg width="512" height="512" viewBox="0 0 512 512" fill="none" xmlns="http://www.w3.org/2000/svg">
<g clip-path="url(#clip0_7965_8931)">
<path d="M492 156V436C492 458.091 474.091 476 452 476H60C37.909 476 20 458.091 20 436V156M60 116H452" stroke="white" stroke-width="40" stroke-miterlimit="10" stroke-linecap="round" stroke-linejoin="round"/>
<path d="M216 276H140C73.726 276 20 222.274 20 156C20 133.909 37.909 116 60 116H452C474.091 116 492 133.909 492 156C492 222.274 438.274 276 372 276H296" stroke="white" stroke-width="40" stroke-miterlimit="10" stroke-linecap="round" stroke-linejoin="round"/>
<path d="M136 116C136 71.817 171.817 36 216 36H296C340.183 36 376 71.817 376 116M296 276C296 298.091 278.091 316 256 316C233.909 316 216 298.091 216 276V236H296V276Z" stroke="white" stroke-width="40" stroke-miterlimit="10" stroke-linecap="round" stroke-linejoin="round"/>
</g>
<defs>
<clipPath id="clip0_7965_8931">
<rect width="512" height="512" fill="white"/>
</clipPath>
</defs>
</svg>
