<svg width="512" height="512" viewBox="0 0 512 512" fill="none" xmlns="http://www.w3.org/2000/svg">
<g clip-path="url(#clip0_7965_8792)">
<g clip-path="url(#clip1_7965_8792)">
<path d="M100 180C111.046 180 121.046 184.477 128.284 191.716L168.284 231.716C175.523 238.954 180 248.954 180 260V372C180 394.091 162.091 412 140 412H60C37.909 412 20 394.091 20 372V260C20 248.954 24.477 238.954 31.716 231.716L71.716 191.716C78.954 184.477 88.954 180 100 180ZM100 180V100M412 180C423.046 180 433.046 184.477 440.284 191.716L480.284 231.716C487.523 238.954 492 248.954 492 260V372C492 394.091 474.091 412 452 412H372C349.909 412 332 394.091 332 372V260C332 248.954 336.477 238.954 343.716 231.716L383.716 191.716C390.954 184.477 400.954 180 412 180ZM412 180V100M256 100V492M136 492H376M60 100H120C136.039 100 150.608 93.707 161.373 83.455L200.836 42.061C215.189 28.391 234.615 20 256 20C277.385 20 296.811 28.391 311.164 42.061L350.627 83.455C361.392 93.707 375.961 100 392 100H452" stroke="#707070" stroke-width="40" stroke-miterlimit="10" stroke-linecap="round" stroke-linejoin="round"/>
</g>
</g>
<defs>
<clipPath id="clip0_7965_8792">
<rect width="512" height="512" fill="white"/>
</clipPath>
<clipPath id="clip1_7965_8792">
<rect width="512" height="512" fill="white"/>
</clipPath>
</defs>
</svg>
