<svg width="512" height="512" viewBox="0 0 512 512" fill="none" xmlns="http://www.w3.org/2000/svg">
<g clip-path="url(#clip0_7965_8922)">
<path d="M105.152 349.408C66.5385 360.992 42.6665 376.992 42.6665 394.667C42.6665 430.016 138.176 458.667 256 458.667C373.824 458.667 469.333 430.016 469.333 394.667C469.333 376.992 445.45 360.992 406.848 349.408" stroke="white" stroke-width="35" stroke-linecap="round" stroke-linejoin="round"/>
<path d="M256 373.334C256 373.334 394.666 282.71 394.666 177.942C394.666 103.232 332.586 42.667 256 42.667C179.413 42.667 117.333 103.232 117.333 177.942C117.333 282.71 256 373.334 256 373.334Z" stroke="white" stroke-width="35" stroke-linejoin="round"/>
<path d="M256 234.667C270.145 234.667 283.71 229.048 293.712 219.046C303.714 209.044 309.333 195.478 309.333 181.333C309.333 167.188 303.714 153.623 293.712 143.621C283.71 133.619 270.145 128 256 128C241.855 128 228.289 133.619 218.287 143.621C208.286 153.623 202.667 167.188 202.667 181.333C202.667 195.478 208.286 209.044 218.287 219.046C228.289 229.048 241.855 234.667 256 234.667Z" stroke="white" stroke-width="35" stroke-linejoin="round"/>
</g>
<defs>
<clipPath id="clip0_7965_8922">
<rect width="512" height="512" fill="white"/>
</clipPath>
</defs>
</svg>
