<svg width="512" height="512" viewBox="0 0 512 512" fill="none" xmlns="http://www.w3.org/2000/svg">
<g clip-path="url(#clip0_7965_8928)">
<path fill-rule="evenodd" clip-rule="evenodd" d="M256 0C302.144 0 342.016 26.08 362.08 64.16C393.588 65.8867 423.238 79.6192 444.932 102.534C466.627 125.449 478.718 155.805 478.72 187.36L478.336 197.056C476.73 217.176 470.206 236.594 459.336 253.601C448.467 270.608 433.585 284.685 416 294.592V456C416 470.852 410.1 485.096 399.598 495.598C389.096 506.1 374.852 512 360 512H152C137.148 512 122.904 506.1 112.402 495.598C101.9 485.096 96 470.852 96 456V295.328C78.0863 285.515 62.8934 271.402 51.7887 254.258C40.6839 237.115 34.0157 217.48 32.384 197.12L32 187.36C32.0096 155.594 44.2699 125.055 66.2288 102.101C88.1877 79.1462 118.153 65.545 149.888 64.128C160.061 44.7914 175.321 28.5992 194.02 17.2981C212.72 5.99701 234.151 0.0159228 256 0ZM144 456C144 460.416 147.584 464 152 464H360C362.122 464 364.157 463.157 365.657 461.657C367.157 460.157 368 458.122 368 456V400H144V456ZM256 48C241.05 48.0101 226.473 52.6739 214.294 61.3441C202.114 70.0142 192.936 82.2608 188.032 96.384L181.824 114.304L163.008 112.384L155.36 112C135.376 112.008 116.213 119.951 102.082 134.082C87.9509 148.213 80.0085 167.376 80 187.36L80.224 193.312C82.528 222.752 101.888 247.488 128.544 257.632L144 263.552V352H368V263.36L383.136 257.312C398.839 251.119 412.006 239.828 420.521 225.253C429.037 210.678 432.409 193.665 430.094 176.944C427.78 160.223 419.914 144.765 407.76 133.051C395.605 121.337 379.867 114.047 363.072 112.352L355.392 112C353.216 112 350.976 112.107 348.672 112.32L330.048 113.92L323.904 96.32C318.993 82.219 309.82 69.9936 297.654 61.3365C285.488 52.6794 270.932 48.0188 256 48Z" fill="white"/>
</g>
<defs>
<clipPath id="clip0_7965_8928">
<rect width="512" height="512" fill="white"/>
</clipPath>
</defs>
</svg>
