<svg width="221" height="34" viewBox="0 0 221 34" fill="none" xmlns="http://www.w3.org/2000/svg">
<path d="M29.3539 29.3539H3.86648V3.86648H26.5255V0H0V33.2203H33.2203V6.69943H29.3539V29.3539Z" fill="url(#paint0_linear_12505_2760)"/>
<path d="M29.2656 0.000244141V3.86672H29.3532V3.959H33.2198V0.000244141H29.2656Z" fill="url(#paint1_linear_12505_2760)"/>
<path d="M16.1357 7.53491H7.52148V11.4014H16.1357V7.53491Z" fill="url(#paint2_linear_12505_2760)"/>
<path d="M25.7021 21.8196H17.0879V25.686H25.7021V21.8196Z" fill="url(#paint3_linear_12505_2760)"/>
<path d="M25.705 14.6768H7.52148V18.5432H25.705V14.6768Z" fill="url(#paint4_linear_12505_2760)"/>
<path d="M56.1545 12.9487C56.0878 12.2763 55.8016 11.754 55.296 11.3817C54.7903 11.0094 54.104 10.8232 53.2371 10.8232C52.6481 10.8232 52.1507 10.9066 51.7451 11.0733C51.3394 11.2344 51.0282 11.4595 50.8115 11.7484C50.6003 12.0374 50.4948 12.3653 50.4948 12.732C50.4836 13.0376 50.5476 13.3044 50.6865 13.5322C50.831 13.76 51.0282 13.9573 51.2783 14.124C51.5284 14.2852 51.8173 14.4269 52.1452 14.5491C52.473 14.6658 52.8231 14.7659 53.1954 14.8492L54.7292 15.216C55.4738 15.3827 56.1573 15.605 56.7797 15.8828C57.402 16.1606 57.9411 16.5024 58.3967 16.9081C58.8524 17.3137 59.2053 17.7916 59.4553 18.3417C59.711 18.8919 59.8415 19.5226 59.8471 20.2339C59.8415 21.2786 59.5748 22.1844 59.0469 22.9512C58.5246 23.7125 57.7688 24.3044 56.7797 24.7267C55.7961 25.1434 54.6097 25.3518 53.2204 25.3518C51.8423 25.3518 50.642 25.1407 49.6195 24.7183C48.6026 24.296 47.808 23.6709 47.2356 22.8429C46.6688 22.0093 46.3715 20.9785 46.3437 19.7504H49.8363C49.8752 20.3228 50.0391 20.8007 50.3281 21.1841C50.6226 21.562 51.0143 21.8482 51.5033 22.0427C51.9979 22.2316 52.5564 22.3261 53.1788 22.3261C53.79 22.3261 54.3207 22.2372 54.7708 22.0593C55.2265 21.8815 55.5794 21.6342 55.8294 21.3175C56.0795 21.0007 56.2045 20.6368 56.2045 20.2256C56.2045 19.8421 56.0906 19.5198 55.8628 19.2586C55.6405 18.9975 55.3126 18.7752 54.8792 18.5918C54.4513 18.4084 53.9262 18.2417 53.3038 18.0917L51.445 17.6249C50.0058 17.2748 48.8694 16.7275 48.0358 15.9828C47.2023 15.2382 46.7883 14.2352 46.7938 12.9737C46.7883 11.9401 47.0633 11.0371 47.619 10.2647C48.1803 9.49231 48.9499 8.88938 49.928 8.45594C50.906 8.0225 52.0174 7.80578 53.2621 7.80578C54.5291 7.80578 55.6349 8.0225 56.5796 8.45594C57.5299 8.88938 58.2689 9.49231 58.7968 10.2647C59.3248 11.0371 59.597 11.9318 59.6137 12.9487H56.1545ZM62.134 25.1101V8.03917H73.6368V11.0149H65.7432V15.0826H73.045V18.0583H65.7432V22.1344H73.6702V25.1101H62.134ZM92.0527 16.5746C92.0527 18.4362 91.6999 20.0199 90.9941 21.3258C90.294 22.6317 89.3382 23.6292 88.1267 24.3182C86.9209 25.0017 85.565 25.3435 84.0591 25.3435C82.542 25.3435 81.1806 24.999 79.9747 24.3099C78.7689 23.6208 77.8158 22.6234 77.1157 21.3175C76.4155 20.0116 76.0654 18.4307 76.0654 16.5746C76.0654 14.7131 76.4155 13.1293 77.1157 11.8234C77.8158 10.5176 78.7689 9.52287 79.9747 8.83937C81.1806 8.15031 82.542 7.80578 84.0591 7.80578C85.565 7.80578 86.9209 8.15031 88.1267 8.83937C89.3382 9.52287 90.294 10.5176 90.9941 11.8234C91.6999 13.1293 92.0527 14.7131 92.0527 16.5746ZM88.3935 16.5746C88.3935 15.3688 88.2129 14.3519 87.8517 13.5239C87.496 12.6959 86.9931 12.068 86.343 11.6401C85.6928 11.2122 84.9315 10.9982 84.0591 10.9982C83.1866 10.9982 82.4253 11.2122 81.7752 11.6401C81.125 12.068 80.6193 12.6959 80.2581 13.5239C79.9025 14.3519 79.7246 15.3688 79.7246 16.5746C79.7246 17.7805 79.9025 18.7974 80.2581 19.6254C80.6193 20.4534 81.125 21.0813 81.7752 21.5092C82.4253 21.9371 83.1866 22.151 84.0591 22.151C84.9315 22.151 85.6928 21.9371 86.343 21.5092C86.9931 21.0813 87.496 20.4534 87.8517 19.6254C88.2129 18.7974 88.3935 17.7805 88.3935 16.5746ZM114.939 14.0157H111.288C111.222 13.5433 111.086 13.1238 110.88 12.757C110.674 12.3847 110.41 12.068 110.088 11.8068C109.766 11.5456 109.394 11.3456 108.971 11.2066C108.554 11.0677 108.102 10.9982 107.613 10.9982C106.729 10.9982 105.959 11.2177 105.304 11.6567C104.648 12.0902 104.139 12.7237 103.778 13.5572C103.417 14.3852 103.236 15.391 103.236 16.5746C103.236 17.7916 103.417 18.8141 103.778 19.6421C104.145 20.4701 104.656 21.0952 105.312 21.5175C105.968 21.9399 106.726 22.151 107.588 22.151C108.071 22.151 108.518 22.0871 108.93 21.9593C109.346 21.8315 109.716 21.6454 110.038 21.4008C110.36 21.1508 110.627 20.8479 110.838 20.4923C111.055 20.1366 111.205 19.731 111.288 19.2753L114.939 19.292C114.845 20.0755 114.609 20.8313 114.231 21.5592C113.859 22.2816 113.356 22.929 112.722 23.5014C112.094 24.0682 111.344 24.5183 110.472 24.8517C109.605 25.1796 108.624 25.3435 107.529 25.3435C106.007 25.3435 104.645 24.999 103.445 24.3099C102.25 23.6208 101.305 22.6234 100.611 21.3175C99.9217 20.0116 99.5772 18.4307 99.5772 16.5746C99.5772 14.7131 99.9273 13.1293 100.627 11.8234C101.328 10.5176 102.278 9.52287 103.478 8.83937C104.678 8.15031 106.029 7.80578 107.529 7.80578C108.518 7.80578 109.435 7.9447 110.28 8.22255C111.13 8.50039 111.883 8.90605 112.539 9.43952C113.194 9.96743 113.728 10.6148 114.139 11.3817C114.556 12.1485 114.823 13.0265 114.939 14.0157ZM123.105 25.3602C121.81 25.3602 120.69 25.0851 119.746 24.535C118.806 23.9793 118.081 23.2069 117.57 22.2177C117.059 21.223 116.803 20.07 116.803 18.7585C116.803 17.436 117.059 16.2801 117.57 15.291C118.081 14.2963 118.806 13.5239 119.746 12.9737C120.69 12.418 121.81 12.1402 123.105 12.1402C124.4 12.1402 125.516 12.418 126.456 12.9737C127.4 13.5239 128.128 14.2963 128.639 15.291C129.151 16.2801 129.406 17.436 129.406 18.7585C129.406 20.07 129.151 21.223 128.639 22.2177C128.128 23.2069 127.4 23.9793 126.456 24.535C125.516 25.0851 124.4 25.3602 123.105 25.3602ZM123.121 22.6095C123.71 22.6095 124.202 22.4428 124.597 22.1094C124.991 21.7704 125.289 21.3092 125.489 20.7257C125.694 20.1422 125.797 19.4781 125.797 18.7335C125.797 17.9889 125.694 17.3248 125.489 16.7413C125.289 16.1579 124.991 15.6966 124.597 15.3577C124.202 15.0187 123.71 14.8492 123.121 14.8492C122.527 14.8492 122.027 15.0187 121.621 15.3577C121.221 15.6966 120.918 16.1579 120.713 16.7413C120.512 17.3248 120.412 17.9889 120.412 18.7335C120.412 19.4781 120.512 20.1422 120.713 20.7257C120.918 21.3092 121.221 21.7704 121.621 22.1094C122.027 22.4428 122.527 22.6095 123.121 22.6095ZM135.125 17.7083V25.1101H131.574V12.3069H134.959V14.5658H135.109C135.392 13.8212 135.867 13.2321 136.534 12.7987C137.201 12.3597 138.009 12.1402 138.96 12.1402C139.849 12.1402 140.624 12.3347 141.285 12.7237C141.946 13.1127 142.46 13.6684 142.827 14.3908C143.194 15.1076 143.377 15.9634 143.377 16.9581V25.1101H139.826V17.5916C139.832 16.808 139.632 16.1968 139.226 15.7578C138.821 15.3132 138.262 15.0909 137.551 15.0909C137.073 15.0909 136.651 15.1937 136.284 15.3993C135.923 15.605 135.639 15.905 135.434 16.2996C135.234 16.6886 135.131 17.1581 135.125 17.7083ZM152.845 12.3069V14.9742H145.135V12.3069H152.845ZM146.885 9.23947H150.436V21.1758C150.436 21.5036 150.486 21.7593 150.586 21.9426C150.686 22.1205 150.825 22.2455 151.003 22.3177C151.186 22.39 151.398 22.4261 151.637 22.4261C151.803 22.4261 151.97 22.4122 152.137 22.3844C152.303 22.3511 152.431 22.3261 152.52 22.3094L153.079 24.9517C152.901 25.0073 152.651 25.0712 152.328 25.1434C152.006 25.2212 151.614 25.2685 151.153 25.2852C150.297 25.3185 149.547 25.2046 148.903 24.9434C148.263 24.6822 147.766 24.2766 147.41 23.7264C147.055 23.1763 146.88 22.4817 146.885 21.6426V9.23947ZM160.715 25.3602C159.398 25.3602 158.264 25.0934 157.314 24.56C156.369 24.0209 155.641 23.2596 155.13 22.2761C154.619 21.2869 154.363 20.1172 154.363 18.7669C154.363 17.4499 154.619 16.294 155.13 15.2993C155.641 14.3046 156.361 13.5294 157.289 12.9737C158.222 12.418 159.317 12.1402 160.573 12.1402C161.418 12.1402 162.204 12.2763 162.932 12.5486C163.665 12.8154 164.304 13.2182 164.849 13.7573C165.399 14.2963 165.827 14.9742 166.133 15.7911C166.438 16.6024 166.591 17.5527 166.591 18.6418V19.6171H155.78V17.4165H163.249C163.249 16.9053 163.138 16.4524 162.915 16.0578C162.693 15.6633 162.385 15.3549 161.99 15.1326C161.601 14.9048 161.148 14.7909 160.631 14.7909C160.092 14.7909 159.614 14.9159 159.198 15.166C158.786 15.4105 158.464 15.7411 158.231 16.1579C157.997 16.5691 157.878 17.0275 157.872 17.5332V19.6254C157.872 20.2589 157.989 20.8063 158.222 21.2675C158.461 21.7287 158.798 22.0844 159.231 22.3344C159.664 22.5845 160.178 22.7095 160.773 22.7095C161.168 22.7095 161.529 22.6539 161.857 22.5428C162.185 22.4317 162.465 22.265 162.699 22.0427C162.932 21.8204 163.11 21.5481 163.232 21.2258L166.516 21.4425C166.349 22.2316 166.008 22.9207 165.491 23.5097C164.98 24.0932 164.318 24.5489 163.507 24.8767C162.701 25.199 161.771 25.3602 160.715 25.3602ZM172.318 17.7083V25.1101H168.768V12.3069H172.152V14.5658H172.302C172.585 13.8212 173.06 13.2321 173.727 12.7987C174.394 12.3597 175.203 12.1402 176.153 12.1402C177.042 12.1402 177.817 12.3347 178.478 12.7237C179.14 13.1127 179.654 13.6684 180.02 14.3908C180.387 15.1076 180.571 15.9634 180.571 16.9581V25.1101H177.02V17.5916C177.025 16.808 176.825 16.1968 176.42 15.7578C176.014 15.3132 175.455 15.0909 174.744 15.0909C174.266 15.0909 173.844 15.1937 173.477 15.3993C173.116 15.605 172.832 15.905 172.627 16.2996C172.427 16.6886 172.324 17.1581 172.318 17.7083ZM190.038 12.3069V14.9742H182.328V12.3069H190.038ZM184.079 9.23947H187.629V21.1758C187.629 21.5036 187.679 21.7593 187.779 21.9426C187.879 22.1205 188.018 22.2455 188.196 22.3177C188.38 22.39 188.591 22.4261 188.83 22.4261C188.996 22.4261 189.163 22.4122 189.33 22.3844C189.497 22.3511 189.624 22.3261 189.713 22.3094L190.272 24.9517C190.094 25.0073 189.844 25.0712 189.522 25.1434C189.199 25.2212 188.807 25.2685 188.346 25.2852C187.49 25.3185 186.74 25.2046 186.096 24.9434C185.457 24.6822 184.959 24.2766 184.604 23.7264C184.248 23.1763 184.073 22.4817 184.079 21.6426V9.23947ZM200.511 25.1101H196.644L202.537 8.03917H207.188L213.073 25.1101H209.205L204.929 11.9401H204.796L200.511 25.1101ZM200.27 18.4001H209.405V21.2175H200.27V18.4001ZM218.596 8.03917V25.1101H214.987V8.03917H218.596Z" fill="white"/>
<defs>
<linearGradient id="paint0_linear_12505_2760" x1="0.831875" y1="3.56973" x2="32.654" y2="36.6252" gradientUnits="userSpaceOnUse">
<stop stop-color="#40EDC3"/>
<stop offset="1" stop-color="#B8F6A1"/>
</linearGradient>
<linearGradient id="paint1_linear_12505_2760" x1="28.1751" y1="-13.0222" x2="41.8942" y2="-9.99547" gradientUnits="userSpaceOnUse">
<stop stop-color="#40EDC3"/>
<stop offset="1" stop-color="#B8F6A1"/>
</linearGradient>
<linearGradient id="paint2_linear_12505_2760" x1="3.5909" y1="0.914744" x2="35.4131" y2="33.9703" gradientUnits="userSpaceOnUse">
<stop stop-color="#40EDC3"/>
<stop offset="1" stop-color="#B8F6A1"/>
</linearGradient>
<linearGradient id="paint3_linear_12505_2760" x1="1.41977" y1="3.00199" x2="33.2419" y2="36.0575" gradientUnits="userSpaceOnUse">
<stop stop-color="#40EDC3"/>
<stop offset="1" stop-color="#B8F6A1"/>
</linearGradient>
<linearGradient id="paint4_linear_12505_2760" x1="2.50676" y1="1.95789" x2="34.3289" y2="35.0135" gradientUnits="userSpaceOnUse">
<stop stop-color="#40EDC3"/>
<stop offset="1" stop-color="#B8F6A1"/>
</linearGradient>
</defs>
</svg>
